Title: Late Bloomers (2011)

France, Belgium, United Kingdom
2010 | color | 35mm | 95 min. | Fiction


Language: Inglês | Subtitles: French|

Plot: Adam and Mary have been married for over thirty years; they have spent more than half their lives together. Their children left home long ago; it seems as though Adam and Mary have enjoyed and endured all of life’s ups and downs together and are now looking forward to what should be a quieter phase in their lives. But then, gradually, certain irritations begin to creep into their lives and both are obliged to acknowledge that the years are now taking their toll. Adam, an architect once successful, see his career and financial situation does not become more prosperous as before, while Mary is having memory problems, which may be an early dementia. Slowly, he and Mary begin to drift apart – until their separation seems inevitable.

Director  Julie Gravas

Screenplay  Olivier Dazat, Julie Gavras

Photography  Nathalie Durand

Editing  Pierre Haberer

Music  Sodi Marciszewer

Casting  Isabella Rossellini, William Hurt, Joanna Lumley, Simon Callow

Producer  Bertrand Faivre, Sylvie Pialat

Production  Gaumont

Site  http://www.imdb.com/title/tt1572502/

Rip spects


General
Complete name                    : Late.Bloomers.2011.PROPER.DVDRip.AC3.HORiZON-ArtSubs
Format                           : AVI
Format/Info                      : Audio Video Interleave
File size                        : 1.56 GiB
Duration                         : 1h 25mn
Overall bit rate                 : 2 618 Kbps
Writing application              : FairUse Wizard - http://fairusewizard.com
Writing library                  : The best and REALLY easy backup tool

Video
ID                               : 0
Format                           : MPEG-4 Visual
Format profile                   : Advanced Simple@L5
Format settings, BVOP            : 1
Format settings, QPel            : No
Format settings, GMC             : No warppoints
Format settings, Matrix          : Default (MPEG)
Muxing mode                      : Packed bitstream
Codec ID                         : XVID
Codec ID/Hint                    : XviD
Duration                         : 1h 25mn
Bit rate                         : 2 161 Kbps
Width                            : 704 pixels
Height                           : 384 pixels
Display aspect ratio             : 16:9
Frame rate                       : 25.000 fps
Color space                      : YUV
Chroma subsampling               : 4:2:0
Bit depth                        : 8 bits
Scan type                        : Progressive
Compression mode                 : Lossy
Bits/(Pixel*Frame)               : 0.320
Stream size                      : 1.29 GiB (83%)
Writing library                  : XviD 1.2.0.dev47 (UTC 2006-11-01)

Audio
ID                               : 1
Format                           : AC-3
Format/Info                      : Audio Coding 3
Mode extension                   : CM (complete main)
Codec ID                         : 2000
Duration                         : 1h 25mn
Bit rate mode                    : Constant
Bit rate                         : 448 Kbps
Channel(s)                       : 6 channels
Channel positions                : Front: L C R, Side: L R, LFE
Sampling rate                    : 48.0 KHz
Bit depth                        : 16 bits
Compression mode                 : Lossy
Stream size                      : 273 MiB (17%)
Alignment                        : Split accross interleaves
Interleave, duration             : 40 ms (1.00 video frame)
Interleave, preload duration     : 500 ms
